<?xml version="1.0" encoding="utf-8"?>
<!-- Generator: Adobe Illustrator 22.1.0, SVG Export Plug-In . SVG Version: 6.00 Build 0)  -->
<svg version="1.1" id="图层_1" xmlns="http://www.w3.org/2000/svg" xmlns:xlink="http://www.w3.org/1999/xlink" x="0px" y="0px"
	 viewBox="0 0 44 44" style="enable-background:new 0 0 44 44;" xml:space="preserve">
<style type="text/css">
	.st0{fill:none;stroke:#7F7F7F;stroke-width:0.1;stroke-miterlimit:10;}
	.st1{fill:#1885F1;}
</style>
<path class="st0" d="M3,41"/>
<path class="st0" d="M44,41"/>
<path class="st0" d="M40.8,41"/>
<path class="st0" d="M41,41"/>
<path class="st1" d="M9.3,31.5c1,0,1.9-0.8,1.9-1.9c0-1-0.8-1.9-1.9-1.9c-1,0-1.9,0.8-1.9,1.9C7.4,30.6,8.3,31.5,9.3,31.5L9.3,31.5z
	 M9.3,29c0.3,0,0.6,0.3,0.6,0.6c0,0.3-0.3,0.6-0.6,0.6c-0.4,0-0.6-0.3-0.6-0.6C8.7,29.2,9,29,9.3,29L9.3,29z M14.4,31.5
	c1,0,1.9-0.8,1.9-1.9c0-1-0.8-1.9-1.9-1.9c-1,0-1.9,0.8-1.9,1.9C12.5,30.6,13.3,31.5,14.4,31.5L14.4,31.5z M14.4,29
	c0.3,0,0.6,0.3,0.6,0.6c0,0.3-0.3,0.6-0.6,0.6c-0.3,0-0.6-0.3-0.6-0.6C13.8,29.2,14,29,14.4,29L14.4,29z M19.4,31.5
	c1,0,1.9-0.8,1.9-1.9c0-1-0.8-1.9-1.9-1.9c-1,0-1.9,0.8-1.9,1.9C17.6,30.6,18.4,31.5,19.4,31.5L19.4,31.5z M19.4,29
	c0.3,0,0.6,0.3,0.6,0.6c0,0.3-0.3,0.6-0.6,0.6c-0.4,0-0.6-0.3-0.6-0.6C18.8,29.2,19.1,29,19.4,29L19.4,29z M24.5,31.5
	c1,0,1.9-0.8,1.9-1.9c0-1-0.9-1.9-1.9-1.9c-1,0-1.9,0.8-1.9,1.9C22.6,30.6,23.5,31.5,24.5,31.5L24.5,31.5z M24.5,29
	c0.3,0,0.6,0.3,0.6,0.6c0,0.3-0.3,0.6-0.6,0.6c-0.3,0-0.6-0.3-0.6-0.6C23.9,29.2,24.2,29,24.5,29L24.5,29z M29.6,31.5
	c1,0,1.9-0.8,1.9-1.9c0-1-0.9-1.9-1.9-1.9c-1,0-1.9,0.8-1.9,1.9C27.7,30.6,28.5,31.5,29.6,31.5L29.6,31.5z M29.6,29
	c0.3,0,0.6,0.3,0.6,0.6c0,0.3-0.3,0.6-0.6,0.6c-0.3,0-0.6-0.3-0.6-0.6C28.9,29.2,29.2,29,29.6,29L29.6,29z M34.6,31.5
	c1,0,1.9-0.8,1.9-1.9c0-1-0.9-1.9-1.9-1.9c-1,0-1.9,0.8-1.9,1.9C32.7,30.6,33.6,31.5,34.6,31.5L34.6,31.5z M34.6,29
	c0.3,0,0.6,0.3,0.6,0.6c0,0.3-0.3,0.6-0.6,0.6c-0.3,0-0.6-0.3-0.6-0.6C34,29.2,34.3,29,34.6,29L34.6,29z M34.6,29"/>
<path class="st1" d="M40.4,38.8h-1.3V35h0.4c0.8,0,1.5-0.7,1.5-1.5v-5.9c0-0.7-0.5-1.4-1.3-1.5v-2.2c0-0.8-0.5-1.4-1.3-1.5V5.4
	C38.5,4.6,37.8,4,37,4h-2.1c-0.8,0-1.5,0.7-1.5,1.5v1.7h-7.6V4.6c0-0.3-0.3-0.6-0.6-0.6h-6.3c-0.3,0-0.6,0.3-0.6,0.6v2.5h-7.6V5.4
	C10.6,4.6,9.9,4,9.1,4H7C6.2,4,5.5,4.6,5.5,5.4v16.9c-0.7,0.1-1.3,0.8-1.3,1.5v2.2C3.5,26.2,3,26.9,3,27.6v5.9C3,34.3,3.7,35,4.5,35
	h0.4v3.8H3.6c-0.4,0-0.6,0.3-0.6,0.6C3,39.8,3.3,40,3.6,40h36.7c0.3,0,0.6-0.3,0.6-0.6C41,39.1,40.7,38.8,40.4,38.8L40.4,38.8z
	 M34.7,5.4c0-0.1,0.1-0.2,0.2-0.2H37c0.1,0,0.2,0.1,0.2,0.2v16.9h-2.5V5.4z M10.6,11.6h7.6v2.5c0,0.3,0.3,0.6,0.6,0.6h1.3V16
	c0,0.8,0.5,1.5,1.3,1.8v1.4c0,0.3,0.3,0.6,0.6,0.6c0.3,0,0.6-0.3,0.6-0.6v-1.4c0.7-0.3,1.3-1,1.3-1.8v-1.3h1.3
	c0.3,0,0.6-0.3,0.6-0.6v-2.5h7.6v10.8H10.6V11.6z M22,16.6c-0.4,0-0.6-0.3-0.6-0.6v-1.3h1.3V16C22.6,16.3,22.4,16.6,22,16.6L22,16.6
	z M33.4,8.4v1.9h-7.6V8.4H33.4z M19.5,5.2h5.1v8.2h-5.1V5.2z M18.2,8.4v1.9h-7.6V8.4H18.2z M6.8,5.4c0-0.1,0.1-0.2,0.2-0.2h2.1
	c0.1,0,0.2,0.1,0.2,0.2v16.9H6.8V5.4z M5.5,23.9c0-0.2,0.1-0.3,0.3-0.3h32.3c0.2,0,0.3,0.1,0.3,0.3v2.2H5.5V23.9z M4.3,33.5v-5.9
	c0-0.1,0.1-0.2,0.2-0.2h35c0.1,0,0.1,0,0.2,0.1c0,0,0.1,0.1,0.1,0.2v5.9c0,0.1,0,0.1-0.1,0.2s-0.1,0.1-0.2,0.1h-35
	C4.4,33.7,4.3,33.6,4.3,33.5L4.3,33.5z M34,35v3.8H10V35H34z M6.2,38.8V35h2.5v3.8H6.2z M35.3,38.8V35h2.5v3.8H35.3z M35.3,38.8"/>
</svg>
